<svg viewBox="0 0 120 120" xmlns="http://www.w3.org/2000/svg">
  <!-- Minimal Style App Icon -->
  <rect x="10" y="10" width="100" height="100" fill="white" stroke="#2992D0" stroke-width="3" rx="22"/>
  
  <!-- Calculator größer und perfekt zentriert (Mittelpunkt bei x=60, y=60) -->
  <rect x="35" y="25" width="50" height="60" fill="#12283A" rx="6"/>
  
  <!-- Display -->
  <rect x="40" y="30" width="40" height="12" fill="white" rx="3"/>
  <!-- Pixelierte Anzeige im Display -->
  <rect x="43" y="33" width="3" height="3" fill="#2992D0"/>
  <rect x="48" y="33" width="3" height="3" fill="#2992D0"/>
  <rect x="53" y="33" width="3" height="3" fill="#2992D0"/>
  <rect x="58" y="33" width="3" height="3" fill="#2992D0"/>
  <rect x="63" y="33" width="3" height="3" fill="#2992D0"/>
  <rect x="68" y="33" width="3" height="3" fill="#2992D0"/>
  <rect x="73" y="33" width="3" height="3" fill="#2992D0"/>
  
  <!-- Tastatur größer -->
  <rect x="42" y="48" width="8" height="8" fill="white" rx="2"/>
  <rect x="52" y="48" width="8" height="8" fill="white" rx="2"/>
  <rect x="62" y="48" width="8" height="8" fill="white" rx="2"/>
  <rect x="72" y="48" width="8" height="8" fill="white" rx="2"/>
  
  <rect x="42" y="58" width="8" height="8" fill="white" rx="2"/>
  <rect x="52" y="58" width="8" height="8" fill="white" rx="2"/>
  <rect x="62" y="58" width="8" height="8" fill="white" rx="2"/>
  <rect x="72" y="58" width="8" height="8" fill="white" rx="2"/>
  
  <rect x="42" y="68" width="18" height="8" fill="#2992D0" rx="2"/>
  <rect x="62" y="68" width="8" height="8" fill="white" rx="2"/>
  <rect x="72" y="68" width="8" height="8" fill="white" rx="2"/>
</svg>