<svg viewBox="0 0 120 120" xmlns="http://www.w3.org/2000/svg">
  <!-- Alternative quadratisches App Icon -->
  <rect x="10" y="10" width="100" height="100" fill="#2992D0" rx="15"/>
  
  <!-- Calculator größer und perfekt zentriert (Mittelpunkt bei x=60, y=60) -->
  <rect x="30" y="20" width="60" height="70" fill="#12283A" rx="8"/>
  
  <!-- Display größer -->
  <rect x="35" y="25" width="50" height="15" fill="white" rx="4"/>
  <!-- Pixelierte Anzeige im Display -->
  <rect x="38" y="28" width="4" height="4" fill="#2992D0"/>
  <rect x="44" y="28" width="4" height="4" fill="#2992D0"/>
  <rect x="50" y="28" width="4" height="4" fill="#2992D0"/>
  <rect x="56" y="28" width="4" height="4" fill="#2992D0"/>
  <rect x="62" y="28" width="4" height="4" fill="#2992D0"/>
  <rect x="68" y="28" width="4" height="4" fill="#2992D0"/>
  <rect x="74" y="28" width="4" height="4" fill="#2992D0"/>
  <rect x="80" y="28" width="4" height="4" fill="#2992D0"/>
  
  <!-- Tastatur größer und detaillierter -->
  <rect x="37" y="46" width="10" height="10" fill="white" rx="2"/>
  <rect x="50" y="46" width="10" height="10" fill="white" rx="2"/>
  <rect x="63" y="46" width="10" height="10" fill="white" rx="2"/>
  <rect x="76" y="46" width="10" height="10" fill="white" rx="2"/>
  
  <rect x="37" y="59" width="10" height="10" fill="white" rx="2"/>
  <rect x="50" y="59" width="10" height="10" fill="white" rx="2"/>
  <rect x="63" y="59" width="10" height="10" fill="white" rx="2"/>
  <rect x="76" y="59" width="10" height="10" fill="white" rx="2"/>
  
  <rect x="37" y="72" width="23" height="10" fill="#2992D0" rx="2"/>
  <rect x="63" y="72" width="10" height="10" fill="white" rx="2"/>
  <rect x="76" y="72" width="10" height="10" fill="white" rx="2"/>
</svg>