<svg viewBox="0 0 400 100" xmlns="http://www.w3.org/2000/svg">
  <!-- Calculator Icon Inverted -->
  <rect x="15" y="15" width="32" height="40" fill="#2992D0" rx="4"/>
  <rect x="19" y="19" width="24" height="8" fill="white" rx="2"/>
  <rect x="21" y="21" width="2" height="2" fill="#12283A"/>
  <rect x="25" y="21" width="2" height="2" fill="#12283A"/>
  <rect x="29" y="21" width="2" height="2" fill="#12283A"/>
  <rect x="33" y="21" width="2" height="2" fill="#12283A"/>
  <rect x="37" y="21" width="2" height="2" fill="#12283A"/>
  
  <rect x="21" y="31" width="4" height="4" fill="white" rx="1"/>
  <rect x="27" y="31" width="4" height="4" fill="white" rx="1"/>
  <rect x="33" y="31" width="4" height="4" fill="white" rx="1"/>
  <rect x="21" y="37" width="4" height="4" fill="white" rx="1"/>
  <rect x="27" y="37" width="4" height="4" fill="white" rx="1"/>
  <rect x="33" y="37" width="4" height="4" fill="white" rx="1"/>
  <rect x="21" y="43" width="10" height="4" fill="#12283A" rx="1"/>
  <rect x="33" y="43" width="4" height="4" fill="white" rx="1"/>
  
  <!-- Text für dunkle Hintergründe -->
  <text x="65" y="42" fill="white" font-family="Poppins, sans-serif" font-size="32" font-weight="700">VetCalc</text>
  <text x="65" y="56" fill="#2992D0" font-family="Poppins, sans-serif" font-size="11" font-weight="400" letter-spacing="1px">POWERED BY BOURG</text>
</svg>